<svg width="720" height="160" viewBox="0 0 720 160" fill="none" xmlns="http://www.w3.org/2000/svg" role="img" aria-label="imgyn logo">
  <rect width="720" height="160" rx="20" fill="#09090B"/>
  <rect x="32" y="32" width="96" height="96" rx="22" fill="#1E1B4B"/>
  <path d="M80 50a4 4 0 0 1 3.847 2.903l4.336 15.177a20 20 0 0 0 13.737 13.737l15.177 4.336a4 4 0 0 1 0 7.694l-15.177 4.336a20 20 0 0 0-13.737 13.737l-4.336 15.177a4 4 0 0 1-7.694 0l-4.336-15.177a20 20 0 0 0-13.737-13.737L42.903 93.847a4 4 0 0 1 0-7.694l15.177-4.336a20 20 0 0 0 13.737-13.737l4.336-15.177A4 4 0 0 1 80 50Z" fill="#A5B4FC"/>
  <path d="M39 45a3 3 0 0 1 2.91 2.273l1.032 4.146a10.5 10.5 0 0 0 7.639 7.639l4.146 1.032a3 3 0 0 1 0 5.82l-4.146 1.032a10.5 10.5 0 0 0-7.639 7.639l-1.032 4.146a3 3 0 0 1-5.82 0l-1.032-4.146a10.5 10.5 0 0 0-7.639-7.639l-4.146-1.032a3 3 0 0 1 0-5.82l4.146-1.032a10.5 10.5 0 0 0 7.639-7.639l1.032-4.146A3 3 0 0 1 39 45Z" fill="#818CF8" opacity="0.9"/>
  <path d="M113 84a3 3 0 0 1 2.848 2.052l1.576 4.73a6 6 0 0 0 3.792 3.792l4.73 1.576a3 3 0 0 1 0 5.694l-4.73 1.576a6 6 0 0 0-3.792 3.792l-1.576 4.73a3 3 0 0 1-5.694 0l-1.576-4.73a6 6 0 0 0-3.792-3.792l-4.73-1.576a3 3 0 0 1 0-5.694l4.73-1.576a6 6 0 0 0 3.792-3.792l1.576-4.73A3 3 0 0 1 113 84Z" fill="#C4B5FD" opacity="0.85"/>
  <text x="162" y="100" fill="#FAFAFA" style="font: 700 64px -apple-system,BlinkMacSystemFont,'Segoe UI',Inter,Arial,sans-serif; letter-spacing: -1px;">imgyn</text>
</svg>
